<svg xmlns="http://www.w3.org/2000/svg" xmlns:xlink="http://www.w3.org/1999/xlink" viewBox="0 0 81 82" fill="#fff" fill-rule="evenodd" stroke="#000" stroke-linecap="round" stroke-linejoin="round"><use xlink:href="#A" x=".5" y=".5"/><symbol id="A" overflow="visible"><g fill="#006dd6" stroke="none"><path d="M25.75 12.288c0-4.307 3.456-7.774 7.75-7.774s7.75 3.467 7.75 7.774-3.456 7.774-7.75 7.774-7.75-3.467-7.75-7.774zM42 37.367c0-5.141 4.125-9.279 9.25-9.279s9.25 4.139 9.25 9.279-4.125 9.279-9.25 9.279S42 42.508 42 37.367zm17.5 27.586c0-4.029 3.233-7.273 7.25-7.273S74 60.924 74 64.953s-3.233 7.273-7.25 7.273-7.25-3.244-7.25-7.273zm-27.75-5.015c0-3.473 2.788-6.27 6.25-6.27s6.25 2.796 6.25 6.27-2.787 6.27-6.25 6.27-6.25-2.796-6.25-6.27zM6.5 40.878c0-3.473 2.788-6.27 6.25-6.27S19 37.404 19 40.878s-2.787 6.27-6.25 6.27-6.25-2.796-6.25-6.27z"/><path d="M34.854 10.797l17.684 25.236-3.272 2.307-17.684-25.235z"/><path d="M52.791 36.044l15.649 27.424-3.472 1.993L49.32 38.037z"/><path d="M50.673 35.209l.331 3.999-38.12 3.175-.331-3.999z"/><path d="M49.275 36.214l3.426 2.071-13.419 22.339-3.426-2.071zM78.75 0H58.5c-.75 0-1.25.501-1.25 1.505v7.273c0 .752.5 1.254 1.25 1.254H70v11.285c0 .752.5 1.254 1.5 1.254h7.25c.75 0 1.25-.501 1.25-1.254V1.254C80 .501 79.5 0 78.75 0zM1.25 80.001H21.5c.75 0 1.25-.502 1.25-1.505v-7.273c0-.752-.5-1.254-1.25-1.254H10V58.684c0-.753-.5-1.254-1.5-1.254H1.25c-.75 0-1.25.501-1.25 1.254v20.063c0 .752.5 1.254 1.25 1.254z"/></g></symbol></svg>